<svg version="1.0" xmlns="http://www.w3.org/2000/svg"
 width="512.000000pt" height="512.000000pt" viewBox="0 0 512.000000 512.000000">
<g id="fill" transform="translate(0.000000,512.000000) scale(0.100000,-0.100000)"
fill="#000000" stroke="none">
<path d="M3813 5110 c-28 -5 -138 -30 -245 -55 -199 -47 -404 -88 -753 -149
-643 -113 -1213 -254 -1741 -431 -322 -108 -543 -205 -736 -321 -166 -100
-208 -160 -208 -299 0 -52 16 -108 101 -356 183 -534 279 -839 380 -1214 210
-773 581 -2021 630 -2118 49 -94 131 -155 225 -164 75 -8 130 5 544 122 456
129 1048 287 1200 319 150 32 406 71 595 91 482 50 596 70 712 124 77 36 348
204 387 240 52 48 78 123 83 241 4 99 -1 133 -82 570 -47 256 -135 742 -196
1080 -138 772 -181 990 -274 1365 -121 489 -226 802 -293 877 -54 59 -102 80
-197 84 -44 1 -103 -1 -132 -6z m164 -259 c23 -11 49 -31 58 -44 19 -30 107
-442 400 -1867 119 -580 229 -1118 245 -1195 52 -252 72 -388 74 -490 1 -121
-13 -150 -101 -212 -194 -135 -379 -188 -942 -269 -874 -125 -1159 -189 -1643
-370 -242 -90 -437 -148 -503 -148 -32 0 -60 7 -78 18 -63 42 -65 47 -379
1101 -436 1465 -550 1834 -631 2047 -66 174 -88 257 -88 341 -1 115 20 137
228 241 582 290 1106 444 2373 696 278 55 564 113 635 130 72 16 139 31 150
33 56 12 162 6 202 -12z"/>
<path d="M3605 4379 c-282 -31 -776 -128 -1171 -229 -282 -72 -449 -125 -475
-151 -28 -28 -24 -80 16 -264 42 -189 64 -242 111 -261 38 -16 35 -17 219 58
117 48 391 133 556 173 103 25 332 62 714 115 121 17 246 37 279 45 156 40
173 123 74 367 -41 101 -59 135 -78 145 -28 14 -125 15 -245 2z m174 -172 c61
-126 -9 -186 -269 -232 -331 -59 -795 -158 -905 -192 -44 -14 -146 -52 -226
-84 -158 -64 -222 -74 -252 -41 -18 20 -58 127 -60 162 -2 23 3 26 59 37 34 7
109 30 166 51 134 51 176 62 398 111 102 22 261 59 353 81 92 22 266 58 385
80 119 22 237 46 262 54 65 20 66 20 89 -27z"/>
<path d="M1435 3975 c-33 -8 -175 -49 -315 -93 -299 -93 -290 -86 -271 -206
24 -143 141 -443 196 -502 52 -55 105 -50 356 35 112 38 241 84 287 101 102
39 109 51 93 160 -13 87 -115 399 -146 444 -41 61 -107 81 -200 61z m107 -182
c17 -19 85 -223 94 -284 5 -28 1 -41 -17 -62 -40 -44 -343 -157 -422 -157 -66
0 -113 54 -137 159 -7 30 -24 81 -37 114 -28 70 -32 112 -12 133 8 8 96 32
194 53 99 21 196 44 215 49 56 16 105 14 122 -5z"/>
<path d="M3945 3349 c-108 -20 -1347 -289 -1558 -338 -205 -47 -207 -50 -181
-264 21 -170 37 -209 99 -241 33 -18 57 -21 145 -20 115 0 211 20 451 94 184
56 391 108 749 185 591 127 595 129 627 188 25 47 21 135 -12 237 -59 185 -93
202 -320 159z m159 -112 c23 -17 50 -141 36 -167 -12 -22 -19 -23 -215 -50
-196 -27 -366 -56 -490 -85 -111 -26 -724 -215 -878 -270 -54 -19 -111 -35
-128 -35 -47 0 -75 36 -84 108 -4 33 -4 65 -1 71 4 5 28 13 54 16 114 16 354
72 566 132 126 35 333 87 460 114 343 75 379 84 521 133 72 25 133 46 136 46
3 0 13 -6 23 -13z"/>
<path d="M1506 2894 c-80 -15 -371 -108 -393 -126 -22 -18 -14 -82 23 -205 20
-65 48 -156 61 -203 42 -145 89 -212 161 -226 38 -8 189 33 362 97 229 84 233
87 232 192 0 67 -6 95 -58 263 -41 133 -65 172 -124 202 -53 26 -140 28 -264
6z m212 -146 c11 -15 62 -252 62 -292 0 -40 -31 -62 -110 -80 -39 -9 -114 -30
-166 -47 -52 -17 -103 -27 -113 -24 -21 6 -55 71 -65 125 -4 19 -26 72 -48
118 -35 71 -39 85 -27 96 17 17 169 62 309 92 124 27 144 28 158 12z"/>
<path d="M4115 2283 c-11 -3 -91 -25 -177 -48 -190 -53 -270 -70 -612 -135
-331 -62 -890 -185 -934 -205 -18 -8 -37 -26 -42 -41 -14 -35 -12 -119 4 -241
18 -132 43 -185 100 -212 72 -35 131 -28 481 55 127 30 309 72 405 94 96 21
259 59 361 84 102 25 256 59 343 76 180 36 231 52 264 83 41 38 55 76 48 131
-33 277 -46 325 -97 351 -27 14 -102 18 -144 8z m57 -190 c9 -10 21 -40 26
-68 12 -57 -2 -91 -41 -100 -12 -3 -96 -21 -187 -41 -228 -49 -326 -74 -620
-159 -289 -83 -376 -102 -647 -141 -228 -32 -223 -34 -223 66 l0 67 63 13 c34
6 213 49 397 96 184 46 472 115 640 153 168 38 357 83 420 100 135 35 152 37
172 14z"/>
<path d="M1605 1750 c-175 -44 -232 -65 -245 -91 -21 -39 -10 -114 41 -269 56
-171 82 -224 131 -265 29 -25 38 -27 88 -22 63 7 311 76 357 101 39 20 57 70
48 129 -13 83 -125 404 -150 431 -34 36 -85 34 -270 -14z m175 -175 c29 -15
53 -64 80 -163 15 -58 7 -78 -43 -95 -23 -9 -75 -27 -115 -42 -82 -29 -106
-26 -126 13 -18 37 -59 206 -54 228 2 13 28 26 88 46 98 31 130 34 170 13z"/>
</g>
</svg>
